<?xml version="1.0" encoding="UTF-8"?>
<svg xmlns="http://www.w3.org/2000/svg" viewBox="0 0 1000 1000">
  <defs>
    <style>
      .cls-1 {
        fill: #d1d5d5;
      }

      .cls-2 {
        fill: #d1d5d5;
      }

      .cls-3 {
        fill: #344954;
      }

      .cls-4 {
        fill: #29bbed;
      }

      .cls-5 {
        fill: #29bbed;
      }

      .cls-6 {
        fill: #fff;
      }
    </style>
  </defs>
  <g id="background">
    <rect class="cls-6" width="1000" height="1000"/>
    <path class="cls-2" d="M500,1000h500v-500c0,276.14-223.86,500-500,500Z"/>
    <path class="cls-2" d="M500,0c276.14,0,500,223.86,500,500V0h-500Z"/>
    <path class="cls-2" d="M0,500v500h500C223.86,1000,0,776.14,0,500Z"/>
    <path class="cls-2" d="M500,0H0v500C0,223.86,223.86,0,500,0Z"/>
  </g>
  <g id="face">
    <g>
      <rect class="cls-1" x="422.23" y="342.75" width="155.54" height="314.49" rx="77.77" ry="77.77"/>
      <path class="cls-3" d="M269.78,423.88c-41.97,0-76.12,34.15-76.12,76.12s34.15,76.12,76.12,76.12,76.12-34.15,76.12-76.12-34.15-76.12-76.12-76.12Z"/>
      <path class="cls-3" d="M313.69,700.65c-11.54-17.63-6.58-41.37,11.06-52.9,6.24-4.08,13.47-6.24,20.9-6.24,12.95,0,24.91,6.46,32,17.29,4.7,7.19,10.36,13.7,16.9,19.52v-380.17c0-66.52-53.93-120.45-120.45-120.45h0c-66.52,0-120.45,53.93-120.45,120.45v403.69c0,66.52,53.93,120.45,120.45,120.45h0c45.31,0,84.77-25.02,105.34-62-27.37-14.75-49.46-34.76-65.74-59.64ZM269.78,594.54c-52.13,0-94.54-42.41-94.54-94.54s42.41-94.54,94.54-94.54,94.54,42.41,94.54,94.54-42.41,94.54-94.54,94.54Z"/>
      <path class="cls-4" d="M725.91,379.55c-66.52,0-120.45,53.93-120.45,120.45s53.93,120.45,120.45,120.45,120.45-53.93,120.45-120.45-53.93-120.45-120.45-120.45ZM725.91,594.54c-52.13,0-94.54-42.41-94.54-94.54s42.41-94.54,94.54-94.54,94.54,42.41,94.54,94.54-42.41,94.54-94.54,94.54Z"/>
      <path class="cls-5" d="M725.91,423.88c-41.97,0-76.12,34.15-76.12,76.12s34.15,76.12,76.12,76.12,76.12-34.15,76.12-76.12-34.15-76.12-76.12-76.12Z"/>
      <path class="cls-3" d="M665.17,663.16c-3.34-2.19-7.1-3.23-10.82-3.23-6.46,0-12.79,3.16-16.59,8.96-12.29,18.79-29.82,33.62-52.1,44.07-23.85,11.19-52.65,17.14-85.66,17.69-33.02-.55-61.81-6.5-85.66-17.69-7.08-3.32-13.68-7.09-19.79-11.29-13.1-9-23.93-19.97-32.31-32.78-3.8-5.81-10.13-8.96-16.59-8.96-3.72,0-7.48,1.05-10.82,3.23-9.15,5.99-11.71,18.26-5.73,27.41,14.37,21.96,33.86,39.74,58.03,52.97,3.37,1.84,6.83,3.6,10.38,5.27,27.82,13.06,60.53,20.22,97.35,21.33v.15h10.27v-.15c36.82-1.12,69.53-8.28,97.35-21.34,29.02-13.62,52.04-33.22,68.41-58.24,5.99-9.15,3.42-21.42-5.73-27.41Z"/>
    </g>
  </g>
</svg>